<svg width="26" height="26" viewBox="0 0 26 26" fill="none" xmlns="http://www.w3.org/2000/svg">
<mask id="mask0_845_7" style="mask-type:alpha" maskUnits="userSpaceOnUse" x="0" y="0" width="26" height="26">
<rect width="26" height="26" fill="#D9D9D9"/>
</mask>
<g mask="url(#mask0_845_7)">
<path d="M2.16669 22.75V20.5833H11.9167V8.47709C11.4472 8.31459 11.041 8.06181 10.6979 7.71876C10.3549 7.3757 10.1021 6.96945 9.9396 6.50001H6.50002L9.75002 14.0833C9.75002 14.9861 9.37988 15.7535 8.6396 16.3854C7.89933 17.0174 7.00558 17.3333 5.95835 17.3333C4.91113 17.3333 4.01738 17.0174 3.2771 16.3854C2.53683 15.7535 2.16669 14.9861 2.16669 14.0833L5.41669 6.50001H3.25002V4.33334H9.9396C10.1563 3.70139 10.5445 3.1823 11.1042 2.77605C11.6639 2.3698 12.2959 2.16667 13 2.16667C13.7042 2.16667 14.3361 2.3698 14.8959 2.77605C15.4556 3.1823 15.8438 3.70139 16.0604 4.33334H22.75V6.50001H20.5834L23.8334 14.0833C23.8334 14.9861 23.4632 15.7535 22.7229 16.3854C21.9827 17.0174 21.0889 17.3333 20.0417 17.3333C18.9945 17.3333 18.1007 17.0174 17.3604 16.3854C16.6202 15.7535 16.25 14.9861 16.25 14.0833L19.5 6.50001H16.0604C15.8979 6.96945 15.6452 7.3757 15.3021 7.71876C14.959 8.06181 14.5528 8.31459 14.0834 8.47709V20.5833H23.8334V22.75H2.16669ZM18.0104 14.0833H22.0729L20.0417 9.37084L18.0104 14.0833ZM3.9271 14.0833H7.9896L5.95835 9.37084L3.9271 14.0833ZM13 6.50001C13.307 6.50001 13.5643 6.39619 13.7719 6.18855C13.9795 5.98091 14.0834 5.72362 14.0834 5.41667C14.0834 5.10973 13.9795 4.85244 13.7719 4.6448C13.5643 4.43716 13.307 4.33334 13 4.33334C12.6931 4.33334 12.4358 4.43716 12.2281 4.6448C12.0205 4.85244 11.9167 5.10973 11.9167 5.41667C11.9167 5.72362 12.0205 5.98091 12.2281 6.18855C12.4358 6.39619 12.6931 6.50001 13 6.50001Z" fill="#F6B73C"/>
</g>
</svg>
